HIERARCHY
ROOT RootJoint
{
    OFFSET   0.000000   0.000000   0.000000
    CHANNELS 6 Xposition Yposition Zposition Xrotation Yrotation Zrotation
    JOINT pelvis_lowerback
    {
        OFFSET   0.000000   0.093605   0.000000
        CHANNELS 3 Xrotation Yrotation Zrotation
        JOINT lowerback_torso
        {
            OFFSET   0.000000   0.100000   0.000000
            CHANNELS 3 Xrotation Yrotation Zrotation
            JOINT torso_head
            {
                OFFSET   0.000000   0.282350   0.000000
                CHANNELS 3 Xrotation Yrotation Zrotation
                End Site
                {
                    OFFSET   0.000000   0.192650   0.000000
                }
            }
            JOINT rTorso_Clavicle
            {
                OFFSET  -0.001000   0.157500   0.000000
                CHANNELS 3 Xrotation Yrotation Zrotation
                JOINT rShoulder
                {
                    OFFSET  -0.117647   0.000000   0.000000
                    CHANNELS 3 Xrotation Yrotation Zrotation
                    JOINT rElbow
                    {
                        OFFSET  -0.245000   0.000000   0.000000
                        CHANNELS 3 Xrotation Yrotation Zrotation
                        JOINT rWrist
                        {
                            OFFSET  -0.240000   0.000000   0.000000
                            CHANNELS 3 Xrotation Yrotation Zrotation
                            End Site
                            {
                                OFFSET  -0.116353  -0.002500   0.000000
                            }
                        }
                    }
                }
            }
            JOINT lTorso_Clavicle
            {
                OFFSET   0.001000   0.157500   0.000000
                CHANNELS 3 Xrotation Yrotation Zrotation
                JOINT lShoulder
                {
                    OFFSET   0.117647   0.000000   0.000000
                    CHANNELS 3 Xrotation Yrotation Zrotation
                    JOINT lElbow
                    {
                        OFFSET   0.245000   0.000000   0.000000
                        CHANNELS 3 Xrotation Yrotation Zrotation
                        JOINT lWrist
                        {
                            OFFSET   0.240000   0.000000   0.000000
                            CHANNELS 3 Xrotation Yrotation Zrotation
                            End Site
                            {
                                OFFSET   0.116353  -0.002500   0.000000
                            }
                        }
                    }
                }
            }
        }
    }
    JOINT rHip
    {
        OFFSET  -0.100000  -0.051395   0.000000
        CHANNELS 3 Xrotation Yrotation Zrotation
        JOINT rKnee
        {
            OFFSET   0.000000  -0.410000   0.000000
            CHANNELS 3 Xrotation Yrotation Zrotation
            JOINT rAnkle
            {
                OFFSET   0.000000  -0.390000   0.000000
                CHANNELS 3 Xrotation Yrotation Zrotation
                JOINT rToeJoint
                {
                    OFFSET   0.000000  -0.050000   0.130000
                    CHANNELS 3 Xrotation Yrotation Zrotation
                    End Site
                    {
                        OFFSET  -0.010000   0.002000   0.060000
                    }
                }
            }
        }
    }
    JOINT lHip
    {
        OFFSET   0.100000  -0.051395   0.000000
        CHANNELS 3 Xrotation Yrotation Zrotation
        JOINT lKnee
        {
            OFFSET   0.000000  -0.410000   0.000000
            CHANNELS 3 Xrotation Yrotation Zrotation
            JOINT lAnkle
            {
                OFFSET   0.000000  -0.390000   0.000000
                CHANNELS 3 Xrotation Yrotation Zrotation
                JOINT lToeJoint
                {
                    OFFSET   0.000000  -0.050000   0.130000
                    CHANNELS 3 Xrotation Yrotation Zrotation
                    End Site
                    {
                        OFFSET   0.010000   0.002000   0.060000
                    }
                }
            }
        }
    }
}
MOTION
Frames: 8
Frame Time:   0.008333
 -2.376719   0.925631   3.975860   0.000000   0.000000   0.000000   0.000000   0.000000   0.000000   0.000000   0.000000   0.000000   0.000000   0.000000   0.000000   0.000000   0.000000   0.000000   0.000000   0.000000   0.000000   0.000000   0.000000   0.000000   0.000000   0.000000   0.000000   0.000000   0.000000   0.000000   0.000000   0.000000   0.000000   0.000000   0.000000   0.000000   0.000000   0.000000   0.000000   0.000000   0.000000   0.000000   0.000000   0.000000   0.000000   0.000000   0.000000   0.000000   0.000000   0.000000   0.000000   0.000000   0.000000   0.000000   0.000000   0.000000   0.000000   0.000000   0.000000   0.000000   0.000000   0.000000   0.000000
 -2.377061   0.926153   3.974642  -0.328043  -0.513155  -0.194011   0.682312   0.415660   0.149709   0.114576  -0.508561  -0.051660  -0.266250  -0.563466   0.346878  -0.344330  -0.143265   0.499030  -0.460310   0.577234   2.007607   0.058536   2.792946   0.006929   0.240548  -1.539000  -2.954522   0.442568   0.950435  -0.401700   1.674082   0.411035  -1.755056   0.009326  -0.475871   0.010742   0.289683  -0.606951   2.441788  -0.220149   0.358891   0.283245   2.724846  -0.002178  -0.003589  -3.672425   0.505578   0.155096   0.083656  -0.000169   0.000257  -1.302252   0.131123   0.248137   3.731825  -0.001958  -0.012214  -2.772543   0.766493   0.042733  -0.474054   0.000325  -0.001607
 -2.377514   0.926919   3.973669  -0.817624  -1.431684  -0.429099   1.406648   1.009296   0.279172   0.389295  -0.794247  -0.074827  -0.451471  -1.135734   0.685154  -0.679566  -0.139846   1.721975  -0.959225   1.317866   4.609295   0.134784   5.538959   0.011932   0.469145  -2.139172  -5.168046   0.900628   2.022613  -1.493335   3.359916   0.915985  -4.076884   0.019764  -0.875011   0.017738   0.669611  -1.138604   4.214840  -0.013231   0.714137   0.628924   5.801088  -0.006102  -0.017610  -7.113280   0.978818   0.342954  -0.015398   0.000097   0.000284  -2.756598   0.258926   0.552248   7.586186  -0.006182  -0.035320  -5.348559   1.489327   0.129207  -0.956141   0.000729  -0.001077
 -2.377960   0.927494   3.972964  -1.306195  -2.597499  -0.670727   2.069090   1.726440   0.380051   0.671172  -0.885364  -0.093743  -0.602902  -1.675426   0.996652  -0.994932  -0.048371   3.376647  -1.498397   2.110813   7.601368   0.208750   8.137578   0.017378   0.695935  -2.387366  -6.521635   1.357741   3.103897  -3.012555   5.055578   1.417118  -6.784201   0.028917  -1.219781   0.021814   1.043849  -1.532057   5.201763   0.533692   1.041574   0.951119   8.839075  -0.011305  -0.035639 -10.317661   1.408323   0.549445  -0.089941   0.000252   0.000500  -4.385145   0.364217   0.865296  11.165792  -0.012405  -0.059360  -7.751926   2.158594   0.246261  -1.392214   0.001009   0.000488
 -2.378363   0.927571   3.972476  -1.759785  -3.919563  -0.914857   2.664955   2.526698   0.458006   0.922201  -0.833603  -0.113056  -0.740223  -2.180172   1.283559  -1.287564   0.093731   5.269491  -2.079888   2.917274  10.860002   0.271588  10.577581   0.023069   0.912344  -2.502139  -7.232196   1.813781   4.162298  -4.777324   6.767310   1.875176  -9.758079   0.036115  -1.525396   0.023931   1.400484  -1.835032   5.601737   1.355005   1.349971   1.218230  11.781597  -0.017378  -0.053617 -13.306153   1.796642   0.766266  -0.152555   0.000341   0.000754  -6.182524   0.447378   1.189148  14.431150  -0.019758  -0.079743 -10.000411   2.777455   0.385455  -1.804393   0.001158   0.002404
 -2.378715   0.926918   3.972165  -2.176654  -5.340169  -1.162597   3.201396   3.379145   0.518604   1.139926  -0.676773  -0.132079  -0.867810  -2.651623   1.548696  -1.556859   0.263206   7.273214  -2.705004   3.715243  14.301557   0.320080  12.860397   0.028529   1.114085  -2.569630  -7.504500   2.268382   5.185833  -6.663742   8.497250   2.270492 -12.914435   0.041276  -1.800188   0.024732   1.737525  -2.079553   5.606321   2.404573   1.646749   1.416783  14.619677  -0.023901  -0.069577 -16.094163   2.147171   0.987615  -0.206609   0.000386   0.000987  -8.123016   0.507307   1.532634  17.398503  -0.027249  -0.094985 -12.105084   3.349346   0.540238  -2.194363   0.001177   0.004304
 -2.378971   0.925345   3.972002  -2.561002  -6.810010  -1.418043   3.686788   4.264078   0.573408   1.329219  -0.437284  -0.134562  -0.987546  -3.092521   1.790224  -1.801713   0.458101   9.353831  -3.335546   4.453722  17.710348   0.352819  14.996104   0.032794   1.300316  -2.609389  -7.413833   2.719565   6.163389  -8.595177  10.244261   2.586901 -16.198216   0.044643  -2.050957   0.024666   2.056180  -2.290122   5.352484   3.643912   1.935996   1.541776  17.351426  -0.030359  -0.082451 -18.695420   2.463227   1.209133  -0.253570   0.000401   0.001168 -10.179088   0.541310   1.899641  20.092973  -0.033912  -0.104846 -14.075284   3.877440   0.705318  -2.561082   0.001063   0.005948
 -2.379102   0.922189   3.971357  -2.769134  -8.055307  -1.677043   4.123503   4.897026   0.545898   1.457739  -0.126025   0.066025  -1.307770  -3.141924   1.807006  -1.918375   0.694706  10.907479  -3.699791   5.222280  20.610423   0.372920  17.347800   0.026831   1.359337  -2.807808  -6.274026   3.005134   7.036557  -9.793074  12.427649   2.599739 -19.804148   0.054519  -2.500597   0.029625   2.142992  -2.461211   4.154506   5.081019   2.145387   1.553063  18.692140  -0.028885  -0.077757 -20.890315   2.942687   1.419388  -0.437521   0.000503   0.001919 -12.763170   0.840653   2.411048  23.454358  -0.041663  -0.103011 -16.287987   4.433278   0.811607  -2.826796   0.001003   0.005232
